<?xml version="1.0" encoding="UTF-8"?>
<svg xmlns="http://www.w3.org/2000/svg" width="512" height="512" viewBox="0 0 512 512">
<title>App icon</title>
<style>text{font-family:Arial,Helvetica,sans-serif;fill:#0F2937}.brand{font-weight:700}.tag{letter-spacing:5px}#building-mark path:first-child{fill:#fff}</style>
<rect x="26" y="26" width="460" height="460" rx="72" fill="#0F2937"/><g transform="translate(128 120) scale(1.3)"><g transform="scale(1.02)"><g id="circuit-mark"><g id="building-mark"><path fill="#0F2937" d="M0 90 42 64v126H0ZM54 28 128 0v190H54Z"/><path fill="#F5B21B" d="M140 22 198 49v42l-58-27Zm0 58 58 27v42l-58-27Zm0 58 58 27v25h-58Z"/></g><path d="M20 164h35V93h44V54h50" fill="none" stroke="#fff" stroke-width="11" stroke-linejoin="round"/><circle cx="20" cy="164" r="14" fill="#fff"/><circle cx="20" cy="164" r="7" fill="#F5B21B"/><circle cx="55" cy="93" r="14" fill="#fff"/><circle cx="55" cy="93" r="7" fill="#0F2937"/><circle cx="149" cy="54" r="14" fill="#fff"/></g></g></g></svg>
