<svg width="302" height="308" viewBox="0 0 302 308" fill="none" xmlns="http://www.w3.org/2000/svg">
<path d="M0 0H10.3884V10.6207H0V0ZM10.3884 0H20.7767V10.6207H10.3884V0ZM20.7767 0H31.1651V10.6207H20.7767V0ZM31.1651 0H41.5534V10.6207H31.1651V0ZM41.5534 0H51.9418V10.6207H41.5534V0ZM51.9418 0H62.3302V10.6207H51.9418V0ZM62.3302 0H72.7185V10.6207H62.3302V0ZM83.1069 0H93.4953V10.6207H83.1069V0ZM93.4953 0H103.884V10.6207H93.4953V0ZM103.884 0H114.272V10.6207H103.884V0ZM114.272 0H124.66V10.6207H114.272V0ZM124.66 0H135.049V10.6207H124.66V0ZM166.214 0H176.602V10.6207H166.214V0ZM228.544 0H238.932V10.6207H228.544V0ZM238.932 0H249.321V10.6207H238.932V0ZM249.321 0H259.709V10.6207H249.321V0ZM259.709 0H270.097V10.6207H259.709V0ZM270.097 0H280.486V10.6207H270.097V0ZM280.486 0H290.874V10.6207H280.486V0ZM290.874 0H301.263V10.6207H290.874V0ZM0 10.6207H10.3884V21.2414H0V10.6207ZM62.3302 10.6207H72.7185V21.2414H62.3302V10.6207ZM83.1069 10.6207H93.4953V21.2414H83.1069V10.6207ZM93.4953 10.6207H103.884V21.2414H93.4953V10.6207ZM114.272 10.6207H124.66V21.2414H114.272V10.6207ZM124.66 10.6207H135.049V21.2414H124.66V10.6207ZM155.825 10.6207H166.214V21.2414H155.825V10.6207ZM166.214 10.6207H176.602V21.2414H166.214V10.6207ZM176.602 10.6207H186.991V21.2414H176.602V10.6207ZM186.991 10.6207H197.379V21.2414H186.991V10.6207ZM207.767 10.6207H218.156V21.2414H207.767V10.6207ZM228.544 10.6207H238.932V21.2414H228.544V10.6207ZM290.874 10.6207H301.263V21.2414H290.874V10.6207ZM0 21.2414H10.3884V31.8621H0V21.2414ZM20.7767 21.2414H31.1651V31.8621H20.7767V21.2414ZM31.1651 21.2414H41.5534V31.8621H31.1651V21.2414ZM41.5534 21.2414H51.9418V31.8621H41.5534V21.2414ZM62.3302 21.2414H72.7185V31.8621H62.3302V21.2414ZM83.1069 21.2414H93.4953V31.8621H83.1069V21.2414ZM103.884 21.2414H114.272V31.8621H103.884V21.2414ZM114.272 21.2414H124.66V31.8621H114.272V21.2414ZM124.66 21.2414H135.049V31.8621H124.66V21.2414ZM166.214 21.2414H176.602V31.8621H166.214V21.2414ZM186.991 21.2414H197.379V31.8621H186.991V21.2414ZM228.544 21.2414H238.932V31.8621H228.544V21.2414ZM249.321 21.2414H259.709V31.8621H249.321V21.2414ZM259.709 21.2414H270.097V31.8621H259.709V21.2414ZM270.097 21.2414H280.486V31.8621H270.097V21.2414ZM290.874 21.2414H301.263V31.8621H290.874V21.2414ZM0 31.8621H10.3884V42.4828H0V31.8621ZM20.7767 31.8621H31.1651V42.4828H20.7767V31.8621ZM31.1651 31.8621H41.5534V42.4828H31.1651V31.8621ZM41.5534 31.8621H51.9418V42.4828H41.5534V31.8621ZM62.3302 31.8621H72.7185V42.4828H62.3302V31.8621ZM124.66 31.8621H135.049V42.4828H124.66V31.8621ZM155.825 31.8621H166.214V42.4828H155.825V31.8621ZM176.602 31.8621H186.991V42.4828H176.602V31.8621ZM228.544 31.8621H238.932V42.4828H228.544V31.8621ZM249.321 31.8621H259.709V42.4828H249.321V31.8621ZM259.709 31.8621H270.097V42.4828H259.709V31.8621ZM270.097 31.8621H280.486V42.4828H270.097V31.8621ZM290.874 31.8621H301.263V42.4828H290.874V31.8621ZM0 42.4828H10.3884V53.1034H0V42.4828ZM20.7767 42.4828H31.1651V53.1034H20.7767V42.4828ZM31.1651 42.4828H41.5534V53.1034H31.1651V42.4828ZM41.5534 42.4828H51.9418V53.1034H41.5534V42.4828ZM62.3302 42.4828H72.7185V53.1034H62.3302V42.4828ZM103.884 42.4828H114.272V53.1034H103.884V42.4828ZM124.66 42.4828H135.049V53.1034H124.66V42.4828ZM176.602 42.4828H186.991V53.1034H176.602V42.4828ZM197.379 42.4828H207.767V53.1034H197.379V42.4828ZM207.767 42.4828H218.156V53.1034H207.767V42.4828ZM228.544 42.4828H238.932V53.1034H228.544V42.4828ZM249.321 42.4828H259.709V53.1034H249.321V42.4828ZM259.709 42.4828H270.097V53.1034H259.709V42.4828ZM270.097 42.4828H280.486V53.1034H270.097V42.4828ZM290.874 42.4828H301.263V53.1034H290.874V42.4828ZM0 53.1034H10.3884V63.7241H0V53.1034ZM62.3302 53.1034H72.7185V63.7241H62.3302V53.1034ZM83.1069 53.1034H93.4953V63.7241H83.1069V53.1034ZM114.272 53.1034H124.66V63.7241H114.272V53.1034ZM124.66 53.1034H135.049V63.7241H124.66V53.1034ZM155.825 53.1034H166.214V63.7241H155.825V53.1034ZM166.214 53.1034H176.602V63.7241H166.214V53.1034ZM176.602 53.1034H186.991V63.7241H176.602V53.1034ZM207.767 53.1034H218.156V63.7241H207.767V53.1034ZM228.544 53.1034H238.932V63.7241H228.544V53.1034ZM290.874 53.1034H301.263V63.7241H290.874V53.1034ZM0 63.7241H10.3884V74.3448H0V63.7241ZM10.3884 63.7241H20.7767V74.3448H10.3884V63.7241ZM20.7767 63.7241H31.1651V74.3448H20.7767V63.7241ZM31.1651 63.7241H41.5534V74.3448H31.1651V63.7241ZM41.5534 63.7241H51.9418V74.3448H41.5534V63.7241ZM51.9418 63.7241H62.3302V74.3448H51.9418V63.7241ZM62.3302 63.7241H72.7185V74.3448H62.3302V63.7241ZM83.1069 63.7241H93.4953V74.3448H83.1069V63.7241ZM103.884 63.7241H114.272V74.3448H103.884V63.7241ZM124.66 63.7241H135.049V74.3448H124.66V63.7241ZM145.437 63.7241H155.825V74.3448H145.437V63.7241ZM166.214 63.7241H176.602V74.3448H166.214V63.7241ZM186.991 63.7241H197.379V74.3448H186.991V63.7241ZM207.767 63.7241H218.156V74.3448H207.767V63.7241ZM228.544 63.7241H238.932V74.3448H228.544V63.7241ZM238.932 63.7241H249.321V74.3448H238.932V63.7241ZM249.321 63.7241H259.709V74.3448H249.321V63.7241ZM259.709 63.7241H270.097V74.3448H259.709V63.7241ZM270.097 63.7241H280.486V74.3448H270.097V63.7241ZM280.486 63.7241H290.874V74.3448H280.486V63.7241ZM290.874 63.7241H301.263V74.3448H290.874V63.7241ZM83.1069 74.3448H93.4953V84.9655H83.1069V74.3448ZM93.4953 74.3448H103.884V84.9655H93.4953V74.3448ZM114.272 74.3448H124.66V84.9655H114.272V74.3448ZM145.437 74.3448H155.825V84.9655H145.437V74.3448ZM166.214 74.3448H176.602V84.9655H166.214V74.3448ZM176.602 74.3448H186.991V84.9655H176.602V74.3448ZM186.991 74.3448H197.379V84.9655H186.991V74.3448ZM207.767 74.3448H218.156V84.9655H207.767V74.3448ZM20.7767 84.9655H31.1651V95.5862H20.7767V84.9655ZM31.1651 84.9655H41.5534V95.5862H31.1651V84.9655ZM41.5534 84.9655H51.9418V95.5862H41.5534V84.9655ZM62.3302 84.9655H72.7185V95.5862H62.3302V84.9655ZM83.1069 84.9655H93.4953V95.5862H83.1069V84.9655ZM93.4953 84.9655H103.884V95.5862H93.4953V84.9655ZM145.437 84.9655H155.825V95.5862H145.437V84.9655ZM166.214 84.9655H176.602V95.5862H166.214V84.9655ZM197.379 84.9655H207.767V95.5862H197.379V84.9655ZM218.156 84.9655H228.544V95.5862H218.156V84.9655ZM228.544 84.9655H238.932V95.5862H228.544V84.9655ZM238.932 84.9655H249.321V95.5862H238.932V84.9655ZM270.097 84.9655H280.486V95.5862H270.097V84.9655ZM280.486 84.9655H290.874V95.5862H280.486V84.9655ZM290.874 84.9655H301.263V95.5862H290.874V84.9655ZM31.1651 95.5862H41.5534V106.207H31.1651V95.5862ZM72.7185 95.5862H83.1069V106.207H72.7185V95.5862ZM93.4953 95.5862H103.884V106.207H93.4953V95.5862ZM145.437 95.5862H155.825V106.207H145.437V95.5862ZM155.825 95.5862H166.214V106.207H155.825V95.5862ZM186.991 95.5862H197.379V106.207H186.991V95.5862ZM207.767 95.5862H218.156V106.207H207.767V95.5862ZM218.156 95.5862H228.544V106.207H218.156V95.5862ZM228.544 95.5862H238.932V106.207H228.544V95.5862ZM238.932 95.5862H249.321V106.207H238.932V95.5862ZM249.321 95.5862H259.709V106.207H249.321V95.5862ZM259.709 95.5862H270.097V106.207H259.709V95.5862ZM270.097 95.5862H280.486V106.207H270.097V95.5862ZM290.874 95.5862H301.263V106.207H290.874V95.5862ZM10.3884 106.207H20.7767V116.828H10.3884V106.207ZM31.1651 106.207H41.5534V116.828H31.1651V106.207ZM41.5534 106.207H51.9418V116.828H41.5534V106.207ZM62.3302 106.207H72.7185V116.828H62.3302V106.207ZM72.7185 106.207H83.1069V116.828H72.7185V106.207ZM83.1069 106.207H93.4953V116.828H83.1069V106.207ZM93.4953 106.207H103.884V116.828H93.4953V106.207ZM114.272 106.207H124.66V116.828H114.272V106.207ZM124.66 106.207H135.049V116.828H124.66V106.207ZM135.049 106.207H145.437V116.828H135.049V106.207ZM145.437 106.207H155.825V116.828H145.437V106.207ZM155.825 106.207H166.214V116.828H155.825V106.207ZM166.214 106.207H176.602V116.828H166.214V106.207ZM176.602 106.207H186.991V116.828H176.602V106.207ZM197.379 106.207H207.767V116.828H197.379V106.207ZM218.156 106.207H228.544V116.828H218.156V106.207ZM228.544 106.207H238.932V116.828H228.544V106.207ZM0 116.828H10.3884V127.448H0V116.828ZM20.7767 116.828H31.1651V127.448H20.7767V116.828ZM41.5534 116.828H51.9418V127.448H41.5534V116.828ZM51.9418 116.828H62.3302V127.448H51.9418V116.828ZM72.7185 116.828H83.1069V127.448H72.7185V116.828ZM83.1069 116.828H93.4953V127.448H83.1069V116.828ZM103.884 116.828H114.272V127.448H103.884V116.828ZM114.272 116.828H124.66V127.448H114.272V116.828ZM124.66 116.828H135.049V127.448H124.66V116.828ZM155.825 116.828H166.214V127.448H155.825V116.828ZM166.214 116.828H176.602V127.448H166.214V116.828ZM176.602 116.828H186.991V127.448H176.602V116.828ZM197.379 116.828H207.767V127.448H197.379V116.828ZM207.767 116.828H218.156V127.448H207.767V116.828ZM218.156 116.828H228.544V127.448H218.156V116.828ZM228.544 116.828H238.932V127.448H228.544V116.828ZM238.932 116.828H249.321V127.448H238.932V116.828ZM259.709 116.828H270.097V127.448H259.709V116.828ZM280.486 116.828H290.874V127.448H280.486V116.828ZM20.7767 127.448H31.1651V138.069H20.7767V127.448ZM31.1651 127.448H41.5534V138.069H31.1651V127.448ZM41.5534 127.448H51.9418V138.069H41.5534V127.448ZM62.3302 127.448H72.7185V138.069H62.3302V127.448ZM83.1069 127.448H93.4953V138.069H83.1069V127.448ZM103.884 127.448H114.272V138.069H103.884V127.448ZM124.66 127.448H135.049V138.069H124.66V127.448ZM145.437 127.448H155.825V138.069H145.437V127.448ZM166.214 127.448H176.602V138.069H166.214V127.448ZM197.379 127.448H207.767V138.069H197.379V127.448ZM218.156 127.448H228.544V138.069H218.156V127.448ZM238.932 127.448H249.321V138.069H238.932V127.448ZM270.097 127.448H280.486V138.069H270.097V127.448ZM280.486 127.448H290.874V138.069H280.486V127.448ZM290.874 127.448H301.263V138.069H290.874V127.448ZM10.3884 138.069H20.7767V148.69H10.3884V138.069ZM20.7767 138.069H31.1651V148.69H20.7767V138.069ZM31.1651 138.069H41.5534V148.69H31.1651V138.069ZM83.1069 138.069H93.4953V148.69H83.1069V138.069ZM103.884 138.069H114.272V148.69H103.884V138.069ZM114.272 138.069H124.66V148.69H114.272V138.069ZM135.049 138.069H145.437V148.69H135.049V138.069ZM145.437 138.069H155.825V148.69H145.437V138.069ZM166.214 138.069H176.602V148.69H166.214V138.069ZM176.602 138.069H186.991V148.69H176.602V138.069ZM186.991 138.069H197.379V148.69H186.991V138.069ZM197.379 138.069H207.767V148.69H197.379V138.069ZM207.767 138.069H218.156V148.69H207.767V138.069ZM218.156 138.069H228.544V148.69H218.156V138.069ZM228.544 138.069H238.932V148.69H228.544V138.069ZM249.321 138.069H259.709V148.69H249.321V138.069ZM259.709 138.069H270.097V148.69H259.709V138.069ZM280.486 138.069H290.874V148.69H280.486V138.069ZM290.874 138.069H301.263V148.69H290.874V138.069ZM0 148.69H10.3884V159.31H0V148.69ZM10.3884 148.69H20.7767V159.31H10.3884V148.69ZM51.9418 148.69H62.3302V159.31H51.9418V148.69ZM62.3302 148.69H72.7185V159.31H62.3302V148.69ZM83.1069 148.69H93.4953V159.31H83.1069V148.69ZM124.66 148.69H135.049V159.31H124.66V148.69ZM135.049 148.69H145.437V159.31H135.049V148.69ZM145.437 148.69H155.825V159.31H145.437V148.69ZM166.214 148.69H176.602V159.31H166.214V148.69ZM176.602 148.69H186.991V159.31H176.602V148.69ZM186.991 148.69H197.379V159.31H186.991V148.69ZM207.767 148.69H218.156V159.31H207.767V148.69ZM218.156 148.69H228.544V159.31H218.156V148.69ZM238.932 148.69H249.321V159.31H238.932V148.69ZM10.3884 159.31H20.7767V169.931H10.3884V159.31ZM31.1651 159.31H41.5534V169.931H31.1651V159.31ZM72.7185 159.31H83.1069V169.931H72.7185V159.31ZM83.1069 159.31H93.4953V169.931H83.1069V159.31ZM93.4953 159.31H103.884V169.931H93.4953V159.31ZM103.884 159.31H114.272V169.931H103.884V159.31ZM124.66 159.31H135.049V169.931H124.66V159.31ZM155.825 159.31H166.214V169.931H155.825V159.31ZM166.214 159.31H176.602V169.931H166.214V159.31ZM176.602 159.31H186.991V169.931H176.602V159.31ZM186.991 159.31H197.379V169.931H186.991V159.31ZM207.767 159.31H218.156V169.931H207.767V159.31ZM228.544 159.31H238.932V169.931H228.544V159.31ZM249.321 159.31H259.709V169.931H249.321V159.31ZM259.709 159.31H270.097V169.931H259.709V159.31ZM0 169.931H10.3884V180.552H0V169.931ZM10.3884 169.931H20.7767V180.552H10.3884V169.931ZM20.7767 169.931H31.1651V180.552H20.7767V169.931ZM31.1651 169.931H41.5534V180.552H31.1651V169.931ZM41.5534 169.931H51.9418V180.552H41.5534V169.931ZM62.3302 169.931H72.7185V180.552H62.3302V169.931ZM83.1069 169.931H93.4953V180.552H83.1069V169.931ZM103.884 169.931H114.272V180.552H103.884V169.931ZM135.049 169.931H145.437V180.552H135.049V169.931ZM155.825 169.931H166.214V180.552H155.825V169.931ZM166.214 169.931H176.602V180.552H166.214V169.931ZM186.991 169.931H197.379V180.552H186.991V169.931ZM259.709 169.931H270.097V180.552H259.709V169.931ZM270.097 169.931H280.486V180.552H270.097V169.931ZM280.486 169.931H290.874V180.552H280.486V169.931ZM290.874 169.931H301.263V180.552H290.874V169.931ZM0 180.552H10.3884V191.172H0V180.552ZM31.1651 180.552H41.5534V191.172H31.1651V180.552ZM41.5534 180.552H51.9418V191.172H41.5534V180.552ZM51.9418 180.552H62.3302V191.172H51.9418V180.552ZM83.1069 180.552H93.4953V191.172H83.1069V180.552ZM93.4953 180.552H103.884V191.172H93.4953V180.552ZM114.272 180.552H124.66V191.172H114.272V180.552ZM124.66 180.552H135.049V191.172H124.66V180.552ZM135.049 180.552H145.437V191.172H135.049V180.552ZM166.214 180.552H176.602V191.172H166.214V180.552ZM186.991 180.552H197.379V191.172H186.991V180.552ZM218.156 180.552H228.544V191.172H218.156V180.552ZM228.544 180.552H238.932V191.172H228.544V180.552ZM249.321 180.552H259.709V191.172H249.321V180.552ZM259.709 180.552H270.097V191.172H259.709V180.552ZM280.486 180.552H290.874V191.172H280.486V180.552ZM290.874 180.552H301.263V191.172H290.874V180.552ZM0 191.172H10.3884V201.793H0V191.172ZM20.7767 191.172H31.1651V201.793H20.7767V191.172ZM62.3302 191.172H72.7185V201.793H62.3302V191.172ZM72.7185 191.172H83.1069V201.793H72.7185V191.172ZM83.1069 191.172H93.4953V201.793H83.1069V191.172ZM103.884 191.172H114.272V201.793H103.884V191.172ZM124.66 191.172H135.049V201.793H124.66V191.172ZM135.049 191.172H145.437V201.793H135.049V191.172ZM145.437 191.172H155.825V201.793H145.437V191.172ZM155.825 191.172H166.214V201.793H155.825V191.172ZM176.602 191.172H186.991V201.793H176.602V191.172ZM207.767 191.172H218.156V201.793H207.767V191.172ZM228.544 191.172H238.932V201.793H228.544V191.172ZM249.321 191.172H259.709V201.793H249.321V191.172ZM0 201.793H10.3884V212.414H0V201.793ZM20.7767 201.793H31.1651V212.414H20.7767V201.793ZM31.1651 201.793H41.5534V212.414H31.1651V201.793ZM51.9418 201.793H62.3302V212.414H51.9418V201.793ZM72.7185 201.793H83.1069V212.414H72.7185V201.793ZM83.1069 201.793H93.4953V212.414H83.1069V201.793ZM103.884 201.793H114.272V212.414H103.884V201.793ZM135.049 201.793H145.437V212.414H135.049V201.793ZM155.825 201.793H166.214V212.414H155.825V201.793ZM176.602 201.793H186.991V212.414H176.602V201.793ZM207.767 201.793H218.156V212.414H207.767V201.793ZM228.544 201.793H238.932V212.414H228.544V201.793ZM238.932 201.793H249.321V212.414H238.932V201.793ZM249.321 201.793H259.709V212.414H249.321V201.793ZM259.709 201.793H270.097V212.414H259.709V201.793ZM0 212.414H10.3884V223.034H0V212.414ZM41.5534 212.414H51.9418V223.034H41.5534V212.414ZM62.3302 212.414H72.7185V223.034H62.3302V212.414ZM72.7185 212.414H83.1069V223.034H72.7185V212.414ZM93.4953 212.414H103.884V223.034H93.4953V212.414ZM103.884 212.414H114.272V223.034H103.884V212.414ZM114.272 212.414H124.66V223.034H114.272V212.414ZM135.049 212.414H145.437V223.034H135.049V212.414ZM145.437 212.414H155.825V223.034H145.437V212.414ZM155.825 212.414H166.214V223.034H155.825V212.414ZM166.214 212.414H176.602V223.034H166.214V212.414ZM197.379 212.414H207.767V223.034H197.379V212.414ZM207.767 212.414H218.156V223.034H207.767V212.414ZM218.156 212.414H228.544V223.034H218.156V212.414ZM228.544 212.414H238.932V223.034H228.544V212.414ZM238.932 212.414H249.321V223.034H238.932V212.414ZM249.321 212.414H259.709V223.034H249.321V212.414ZM270.097 212.414H280.486V223.034H270.097V212.414ZM83.1069 223.034H93.4953V233.655H83.1069V223.034ZM93.4953 223.034H103.884V233.655H93.4953V223.034ZM103.884 223.034H114.272V233.655H103.884V223.034ZM114.272 223.034H124.66V233.655H114.272V223.034ZM155.825 223.034H166.214V233.655H155.825V223.034ZM166.214 223.034H176.602V233.655H166.214V223.034ZM176.602 223.034H186.991V233.655H176.602V223.034ZM186.991 223.034H197.379V233.655H186.991V223.034ZM207.767 223.034H218.156V233.655H207.767V223.034ZM249.321 223.034H259.709V233.655H249.321V223.034ZM259.709 223.034H270.097V233.655H259.709V223.034ZM280.486 223.034H290.874V233.655H280.486V223.034ZM290.874 223.034H301.263V233.655H290.874V223.034ZM0 233.655H10.3884V244.276H0V233.655ZM10.3884 233.655H20.7767V244.276H10.3884V233.655ZM20.7767 233.655H31.1651V244.276H20.7767V233.655ZM31.1651 233.655H41.5534V244.276H31.1651V233.655ZM41.5534 233.655H51.9418V244.276H41.5534V233.655ZM51.9418 233.655H62.3302V244.276H51.9418V233.655ZM62.3302 233.655H72.7185V244.276H62.3302V233.655ZM93.4953 233.655H103.884V244.276H93.4953V233.655ZM103.884 233.655H114.272V244.276H103.884V233.655ZM114.272 233.655H124.66V244.276H114.272V233.655ZM124.66 233.655H135.049V244.276H124.66V233.655ZM145.437 233.655H155.825V244.276H145.437V233.655ZM155.825 233.655H166.214V244.276H155.825V233.655ZM176.602 233.655H186.991V244.276H176.602V233.655ZM197.379 233.655H207.767V244.276H197.379V233.655ZM207.767 233.655H218.156V244.276H207.767V233.655ZM228.544 233.655H238.932V244.276H228.544V233.655ZM249.321 233.655H259.709V244.276H249.321V233.655ZM0 244.276H10.3884V254.897H0V244.276ZM62.3302 244.276H72.7185V254.897H62.3302V244.276ZM93.4953 244.276H103.884V254.897H93.4953V244.276ZM114.272 244.276H124.66V254.897H114.272V244.276ZM135.049 244.276H145.437V254.897H135.049V244.276ZM166.214 244.276H176.602V254.897H166.214V244.276ZM176.602 244.276H186.991V254.897H176.602V244.276ZM197.379 244.276H207.767V254.897H197.379V244.276ZM207.767 244.276H218.156V254.897H207.767V244.276ZM249.321 244.276H259.709V254.897H249.321V244.276ZM259.709 244.276H270.097V254.897H259.709V244.276ZM0 254.897H10.3884V265.517H0V254.897ZM20.7767 254.897H31.1651V265.517H20.7767V254.897ZM31.1651 254.897H41.5534V265.517H31.1651V254.897ZM41.5534 254.897H51.9418V265.517H41.5534V254.897ZM62.3302 254.897H72.7185V265.517H62.3302V254.897ZM83.1069 254.897H93.4953V265.517H83.1069V254.897ZM93.4953 254.897H103.884V265.517H93.4953V254.897ZM103.884 254.897H114.272V265.517H103.884V254.897ZM114.272 254.897H124.66V265.517H114.272V254.897ZM124.66 254.897H135.049V265.517H124.66V254.897ZM135.049 254.897H145.437V265.517H135.049V254.897ZM145.437 254.897H155.825V265.517H145.437V254.897ZM155.825 254.897H166.214V265.517H155.825V254.897ZM186.991 254.897H197.379V265.517H186.991V254.897ZM207.767 254.897H218.156V265.517H207.767V254.897ZM218.156 254.897H228.544V265.517H218.156V254.897ZM228.544 254.897H238.932V265.517H228.544V254.897ZM238.932 254.897H249.321V265.517H238.932V254.897ZM249.321 254.897H259.709V265.517H249.321V254.897ZM259.709 254.897H270.097V265.517H259.709V254.897ZM270.097 254.897H280.486V265.517H270.097V254.897ZM0 265.517H10.3884V276.138H0V265.517ZM20.7767 265.517H31.1651V276.138H20.7767V265.517ZM31.1651 265.517H41.5534V276.138H31.1651V265.517ZM41.5534 265.517H51.9418V276.138H41.5534V265.517ZM62.3302 265.517H72.7185V276.138H62.3302V265.517ZM83.1069 265.517H93.4953V276.138H83.1069V265.517ZM103.884 265.517H114.272V276.138H103.884V265.517ZM135.049 265.517H145.437V276.138H135.049V265.517ZM145.437 265.517H155.825V276.138H145.437V265.517ZM155.825 265.517H166.214V276.138H155.825V265.517ZM176.602 265.517H186.991V276.138H176.602V265.517ZM197.379 265.517H207.767V276.138H197.379V265.517ZM207.767 265.517H218.156V276.138H207.767V265.517ZM218.156 265.517H228.544V276.138H218.156V265.517ZM238.932 265.517H249.321V276.138H238.932V265.517ZM259.709 265.517H270.097V276.138H259.709V265.517ZM0 276.138H10.3884V286.759H0V276.138ZM20.7767 276.138H31.1651V286.759H20.7767V276.138ZM31.1651 276.138H41.5534V286.759H31.1651V276.138ZM41.5534 276.138H51.9418V286.759H41.5534V276.138ZM62.3302 276.138H72.7185V286.759H62.3302V276.138ZM83.1069 276.138H93.4953V286.759H83.1069V276.138ZM103.884 276.138H114.272V286.759H103.884V276.138ZM114.272 276.138H124.66V286.759H114.272V276.138ZM124.66 276.138H135.049V286.759H124.66V276.138ZM145.437 276.138H155.825V286.759H145.437V276.138ZM155.825 276.138H166.214V286.759H155.825V276.138ZM186.991 276.138H197.379V286.759H186.991V276.138ZM197.379 276.138H207.767V286.759H197.379V276.138ZM207.767 276.138H218.156V286.759H207.767V276.138ZM218.156 276.138H228.544V286.759H218.156V276.138ZM228.544 276.138H238.932V286.759H228.544V276.138ZM238.932 276.138H249.321V286.759H238.932V276.138ZM249.321 276.138H259.709V286.759H249.321V276.138ZM259.709 276.138H270.097V286.759H259.709V276.138ZM280.486 276.138H290.874V286.759H280.486V276.138ZM0 286.759H10.3884V297.379H0V286.759ZM62.3302 286.759H72.7185V297.379H62.3302V286.759ZM124.66 286.759H135.049V297.379H124.66V286.759ZM145.437 286.759H155.825V297.379H145.437V286.759ZM176.602 286.759H186.991V297.379H176.602V286.759ZM186.991 286.759H197.379V297.379H186.991V286.759ZM207.767 286.759H218.156V297.379H207.767V286.759ZM228.544 286.759H238.932V297.379H228.544V286.759ZM249.321 286.759H259.709V297.379H249.321V286.759ZM259.709 286.759H270.097V297.379H259.709V286.759ZM280.486 286.759H290.874V297.379H280.486V286.759ZM0 297.379H10.3884V308H0V297.379ZM10.3884 297.379H20.7767V308H10.3884V297.379ZM20.7767 297.379H31.1651V308H20.7767V297.379ZM31.1651 297.379H41.5534V308H31.1651V297.379ZM41.5534 297.379H51.9418V308H41.5534V297.379ZM51.9418 297.379H62.3302V308H51.9418V297.379ZM62.3302 297.379H72.7185V308H62.3302V297.379ZM93.4953 297.379H103.884V308H93.4953V297.379ZM176.602 297.379H186.991V308H176.602V297.379ZM186.991 297.379H197.379V308H186.991V297.379ZM197.379 297.379H207.767V308H197.379V297.379ZM228.544 297.379H238.932V308H228.544V297.379ZM249.321 297.379H259.709V308H249.321V297.379ZM270.097 297.379H280.486V308H270.097V297.379Z" fill="black"/>
</svg>
